<svg xmlns="http://www.w3.org/2000/svg" xmlns:xlink="http://www.w3.org/1999/xlink" width="500" zoomAndPan="magnify" viewBox="0 0 375 374.999991" height="500" preserveAspectRatio="xMidYMid meet" version="1.0"><defs><g/></defs><g fill="#000000" fill-opacity="1"><g transform="translate(78.011718, 209.750012)"><g><path d="M 35.371094 -33.691406 C 33.644531 -34.21875 32.105469 -33.882812 30.621094 -33.210938 C 29.949219 -32.875 29.46875 -32.394531 29.082031 -31.722656 C 28.125 -30.042969 27.257812 -28.363281 26.539062 -26.585938 C 25.675781 -24.429688 24.667969 -22.363281 23.5625 -20.253906 C 23.179688 -19.390625 23.035156 -18.429688 22.363281 -17.710938 C 22.269531 -17.804688 22.171875 -17.804688 22.125 -17.851562 C 19.820312 -22.988281 17.375 -28.027344 15.164062 -33.210938 C 14.542969 -33.644531 13.871094 -33.59375 13.199219 -33.546875 C 12.71875 -33.546875 12.285156 -33.5 11.804688 -33.5 C 8.542969 -33.546875 5.277344 -33.546875 1.96875 -33.59375 C 1.632812 -33.59375 1.390625 -33.691406 1.199219 -33.308594 C 1.152344 -33.066406 1.199219 -32.921875 1.296875 -32.730469 C 2.015625 -31.339844 2.976562 -30.089844 3.695312 -28.699219 C 4.511719 -27.210938 5.183594 -25.578125 6 -24.09375 C 7.628906 -20.875 9.308594 -17.757812 11.039062 -14.636719 C 11.710938 -13.535156 12 -12.382812 12.046875 -11.085938 C 12.191406 -7.726562 12.09375 -4.414062 12.140625 -1.007812 C 12.140625 -0.625 12 -0.191406 12.429688 0.191406 C 13.148438 0.0976562 14.015625 -0.046875 14.878906 0 C 16.414062 0.046875 17.949219 -0.191406 19.484375 -0.046875 C 21.453125 0.191406 23.371094 0.144531 25.339844 -0.144531 C 25.722656 -0.769531 25.578125 -1.296875 25.578125 -1.871094 C 25.53125 -3.023438 25.292969 -4.175781 25.339844 -5.277344 L 25.484375 -11.230469 C 25.484375 -11.804688 25.578125 -12.429688 25.867188 -12.957031 C 26.730469 -14.636719 27.355469 -16.460938 28.171875 -18.1875 C 29.515625 -20.972656 30.667969 -23.851562 32.105469 -26.585938 C 32.730469 -27.789062 33.355469 -28.941406 35.179688 -28.699219 C 35.324219 -28.699219 35.417969 -28.746094 35.5625 -28.941406 C 35.324219 -30.425781 35.609375 -32.058594 35.371094 -33.691406 Z M 35.371094 -33.691406 "/></g></g></g><g fill="#000000" fill-opacity="1"><g transform="translate(114.914712, 209.750012)"><g><path d="M 23.226562 -33.980469 C 21.882812 -33.980469 20.539062 -33.882812 19.246094 -33.882812 C 18.046875 -33.882812 16.894531 -33.835938 15.695312 -33.980469 C 15.164062 -34.027344 14.636719 -33.929688 14.15625 -33.882812 C 13.390625 -32.15625 12.910156 -30.425781 12.191406 -28.796875 C 11.421875 -27.019531 10.992188 -25.148438 10.078125 -23.421875 C 9.40625 -22.171875 9.214844 -20.734375 8.6875 -19.4375 C 8.300781 -18.574219 8.109375 -17.613281 7.726562 -16.796875 C 6.863281 -15.023438 6.144531 -13.148438 5.375 -11.328125 C 4.992188 -10.414062 4.75 -9.503906 4.320312 -8.636719 C 3.648438 -7.390625 3.214844 -6.046875 2.785156 -4.75 C 2.398438 -3.503906 1.777344 -2.351562 1.296875 -1.152344 C 1.105469 -0.625 1.199219 -0.335938 1.390625 0 C 2.878906 -0.046875 4.320312 -0.144531 6 -0.0976562 C 6.480469 -0.863281 6.71875 -2.015625 7.199219 -3.023438 C 7.726562 -4.128906 8.109375 -5.230469 8.589844 -6.429688 C 12.71875 -6.191406 16.84375 -6.765625 21.019531 -6.382812 C 21.789062 -4.222656 22.699219 -2.0625 23.421875 0.0976562 C 23.851562 0.289062 24.234375 0 24.570312 0.046875 C 26.78125 0.0976562 28.988281 0.046875 31.195312 -0.0976562 C 32.585938 -0.191406 33.980469 0 35.371094 -0.238281 C 35.800781 -0.335938 36.378906 -0.046875 36.714844 -0.671875 C 32.105469 -11.566406 28.460938 -22.84375 23.757812 -33.785156 C 23.660156 -33.835938 23.421875 -33.980469 23.226562 -33.980469 Z M 15.070312 -23.179688 C 16.558594 -19.246094 17.804688 -15.214844 19.292969 -11.230469 C 16.269531 -11.132812 13.34375 -10.941406 10.414062 -11.132812 C 12.046875 -15.070312 13.199219 -19.246094 15.070312 -23.179688 Z M 15.070312 -23.179688 "/></g></g></g><g fill="#000000" fill-opacity="1"><g transform="translate(152.921442, 209.750012)"><g><path d="M 14.015625 -34.21875 C 11.949219 -34.074219 10.078125 -33.449219 8.253906 -32.636719 C 7.390625 -32.25 6.574219 -31.820312 5.902344 -31.148438 C 4.128906 -29.371094 3.121094 -27.257812 2.976562 -24.714844 C 2.832031 -22.027344 3.597656 -19.53125 5.613281 -17.804688 C 7.199219 -16.414062 8.496094 -14.636719 10.605469 -13.820312 C 11.375 -13.484375 12.046875 -12.910156 12.765625 -12.476562 C 14.015625 -11.804688 15.261719 -11.039062 16.460938 -10.269531 C 17.613281 -9.503906 18.765625 -8.6875 19.867188 -7.773438 C 20.734375 -7.007812 20.636719 -4.992188 19.292969 -4.65625 C 17.277344 -4.078125 15.308594 -4.078125 13.390625 -4.75 C 12.335938 -4.847656 11.085938 -5.664062 9.984375 -6.238281 C 8.6875 -6.863281 7.34375 -7.964844 6.429688 -9.117188 C 6.191406 -9.40625 5.808594 -9.648438 5.566406 -9.839844 C 4.847656 -9.886719 4.558594 -9.503906 4.269531 -9.167969 C 3.792969 -8.589844 3.359375 -8.015625 2.976562 -7.4375 C 2.6875 -7.054688 1.824219 -6.046875 1.96875 -5.710938 C 2.304688 -4.941406 3.503906 -4.128906 4.128906 -3.597656 C 6.238281 -1.726562 8.6875 -0.574219 11.375 0.0976562 C 14.589844 0.863281 17.851562 0.863281 21.117188 0.433594 C 23.949219 0.0976562 26.585938 -0.769531 28.84375 -2.542969 C 29.660156 -3.167969 30.425781 -3.886719 30.8125 -4.800781 C 31.339844 -6.238281 31.769531 -7.679688 31.769531 -9.308594 C 31.675781 -12.09375 30.667969 -14.398438 28.652344 -16.269531 C 27.355469 -17.566406 25.722656 -18.429688 24.285156 -19.582031 C 23.132812 -20.445312 21.882812 -21.117188 20.683594 -21.933594 C 19.390625 -22.796875 18.046875 -23.613281 16.75 -24.523438 C 16.269531 -24.859375 15.835938 -25.339844 15.550781 -25.867188 C 14.828125 -27.117188 15.261719 -28.269531 16.558594 -28.699219 C 16.988281 -28.84375 17.375 -28.941406 17.804688 -28.941406 C 19.148438 -29.035156 20.398438 -28.890625 21.644531 -28.460938 C 23.226562 -27.929688 24.523438 -27.019531 25.195312 -25.4375 C 25.339844 -25.148438 25.4375 -24.8125 25.867188 -24.570312 C 27.453125 -24.621094 29.179688 -24.285156 30.859375 -24.570312 C 30.957031 -25.292969 30.859375 -25.773438 30.667969 -26.300781 C 30.378906 -26.921875 29.949219 -27.453125 29.613281 -28.027344 C 28.074219 -30.523438 26.058594 -32.347656 23.226562 -33.257812 C 20.253906 -34.21875 17.179688 -34.457031 14.015625 -34.21875 Z M 14.015625 -34.21875 "/></g></g></g><g fill="#000000" fill-opacity="1"><g transform="translate(186.417267, 209.750012)"><g><path d="M 14.015625 -34.21875 C 11.949219 -34.074219 10.078125 -33.449219 8.253906 -32.636719 C 7.390625 -32.25 6.574219 -31.820312 5.902344 -31.148438 C 4.128906 -29.371094 3.121094 -27.257812 2.976562 -24.714844 C 2.832031 -22.027344 3.597656 -19.53125 5.613281 -17.804688 C 7.199219 -16.414062 8.496094 -14.636719 10.605469 -13.820312 C 11.375 -13.484375 12.046875 -12.910156 12.765625 -12.476562 C 14.015625 -11.804688 15.261719 -11.039062 16.460938 -10.269531 C 17.613281 -9.503906 18.765625 -8.6875 19.867188 -7.773438 C 20.734375 -7.007812 20.636719 -4.992188 19.292969 -4.65625 C 17.277344 -4.078125 15.308594 -4.078125 13.390625 -4.75 C 12.335938 -4.847656 11.085938 -5.664062 9.984375 -6.238281 C 8.6875 -6.863281 7.34375 -7.964844 6.429688 -9.117188 C 6.191406 -9.40625 5.808594 -9.648438 5.566406 -9.839844 C 4.847656 -9.886719 4.558594 -9.503906 4.269531 -9.167969 C 3.792969 -8.589844 3.359375 -8.015625 2.976562 -7.4375 C 2.6875 -7.054688 1.824219 -6.046875 1.96875 -5.710938 C 2.304688 -4.941406 3.503906 -4.128906 4.128906 -3.597656 C 6.238281 -1.726562 8.6875 -0.574219 11.375 0.0976562 C 14.589844 0.863281 17.851562 0.863281 21.117188 0.433594 C 23.949219 0.0976562 26.585938 -0.769531 28.84375 -2.542969 C 29.660156 -3.167969 30.425781 -3.886719 30.8125 -4.800781 C 31.339844 -6.238281 31.769531 -7.679688 31.769531 -9.308594 C 31.675781 -12.09375 30.667969 -14.398438 28.652344 -16.269531 C 27.355469 -17.566406 25.722656 -18.429688 24.285156 -19.582031 C 23.132812 -20.445312 21.882812 -21.117188 20.683594 -21.933594 C 19.390625 -22.796875 18.046875 -23.613281 16.75 -24.523438 C 16.269531 -24.859375 15.835938 -25.339844 15.550781 -25.867188 C 14.828125 -27.117188 15.261719 -28.269531 16.558594 -28.699219 C 16.988281 -28.84375 17.375 -28.941406 17.804688 -28.941406 C 19.148438 -29.035156 20.398438 -28.890625 21.644531 -28.460938 C 23.226562 -27.929688 24.523438 -27.019531 25.195312 -25.4375 C 25.339844 -25.148438 25.4375 -24.8125 25.867188 -24.570312 C 27.453125 -24.621094 29.179688 -24.285156 30.859375 -24.570312 C 30.957031 -25.292969 30.859375 -25.773438 30.667969 -26.300781 C 30.378906 -26.921875 29.949219 -27.453125 29.613281 -28.027344 C 28.074219 -30.523438 26.058594 -32.347656 23.226562 -33.257812 C 20.253906 -34.21875 17.179688 -34.457031 14.015625 -34.21875 Z M 14.015625 -34.21875 "/></g></g></g><g fill="#000000" fill-opacity="1"><g transform="translate(219.913091, 209.750012)"><g><path d="M 30.859375 -33.59375 L 30.476562 -33.59375 C 28.941406 -33.59375 27.402344 -33.691406 25.914062 -33.546875 C 24.378906 -33.402344 22.84375 -33.59375 21.355469 -33.5 C 19.820312 -33.355469 18.238281 -33.546875 16.703125 -33.449219 C 15.644531 -33.402344 14.542969 -33.449219 13.484375 -33.402344 C 10.460938 -33.257812 7.4375 -33.5 4.414062 -33.355469 C 3.984375 -33.355469 3.742188 -33.449219 3.3125 -33.308594 C 3.214844 -33.164062 2.976562 -33.113281 2.878906 -33.019531 C 2.925781 -32.394531 3.121094 -28.84375 3.023438 -24.332031 C 2.925781 -22.988281 2.925781 -21.644531 2.878906 -20.300781 C 2.878906 -18.957031 2.925781 -17.566406 2.925781 -16.222656 C 2.925781 -14.925781 3.023438 -13.679688 3.121094 -12.382812 C 3.214844 -11.566406 3.167969 -10.75 3.167969 -9.933594 C 3.167969 -8.925781 3.214844 -7.871094 3.121094 -6.910156 C 3.023438 -5.902344 3.023438 -4.992188 3.121094 -4.03125 C 3.214844 -2.6875 3.261719 -1.296875 3.167969 0.046875 C 3.167969 0.238281 4.464844 0.046875 4.894531 0.046875 C 6.144531 0.046875 7.34375 0.144531 8.542969 0.238281 C 9.597656 0.289062 13.582031 0.046875 14.15625 0.046875 C 16.84375 0.046875 19.53125 0.0976562 22.171875 0 C 24.234375 -0.046875 26.300781 -0.191406 28.363281 -0.046875 C 29.996094 0.046875 31.578125 -0.238281 33.210938 -0.191406 C 33.882812 -0.144531 34.21875 -0.527344 34.171875 -1.199219 L 34.171875 -4.800781 C 33.164062 -5.328125 32.203125 -4.847656 31.242188 -4.847656 C 29.660156 -4.847656 28.027344 -4.894531 26.445312 -4.703125 C 25.675781 -4.65625 24.859375 -4.800781 24.140625 -4.65625 C 22.890625 -4.464844 21.691406 -4.511719 20.445312 -4.414062 C 19.484375 -4.367188 18.429688 -4.414062 17.421875 -4.464844 C 16.988281 -4.511719 16.507812 -4.320312 16.125 -4.605469 C 15.980469 -7.917969 15.695312 -11.230469 15.933594 -14.589844 L 19.484375 -14.589844 C 20.15625 -14.589844 20.828125 -14.589844 21.5 -14.636719 C 23.226562 -14.6875 24.90625 -14.78125 26.636719 -14.78125 C 27.546875 -14.78125 28.460938 -14.828125 29.371094 -14.828125 C 29.851562 -14.828125 30.140625 -15.214844 30.140625 -15.695312 C 30.089844 -16.75 30.042969 -17.804688 30.089844 -18.910156 C 30.140625 -19.582031 29.753906 -19.964844 29.082031 -20.011719 C 28.269531 -20.0625 27.453125 -20.011719 26.636719 -19.964844 C 24.957031 -19.917969 23.277344 -19.773438 21.597656 -19.773438 C 20.828125 -19.820312 20.0625 -19.867188 19.292969 -19.726562 C 18.1875 -19.582031 17.132812 -19.917969 16.03125 -19.773438 C 15.695312 -22.699219 16.03125 -25.867188 15.933594 -28.746094 C 21.355469 -29.226562 26.828125 -28.890625 32.25 -28.988281 C 32.300781 -29.226562 32.394531 -29.46875 32.347656 -29.707031 C 32.25 -30.570312 32.15625 -31.433594 32.300781 -32.347656 C 32.394531 -33.257812 31.820312 -33.691406 30.859375 -33.59375 Z M 30.859375 -33.59375 "/></g></g></g><g fill="#000000" fill-opacity="1"><g transform="translate(255.520407, 209.750012)"><g><path d="M 25.53125 -33.691406 C 21.882812 -33.738281 18.238281 -33.257812 14.589844 -33.402344 C 12.863281 -33.449219 11.132812 -33.355469 9.40625 -33.355469 C 7.628906 -33.355469 5.855469 -33.5 4.078125 -33.402344 C 3.695312 -33.402344 3.359375 -33.355469 3.070312 -32.921875 C 3.070312 -30.285156 3.023438 -27.546875 3.070312 -24.8125 L 3.070312 -8.300781 C 3.023438 -5.613281 2.832031 -2.878906 2.925781 -0.0976562 L 16.078125 -0.0976562 C 16.078125 -3.984375 15.695312 -7.726562 15.933594 -11.519531 C 19.292969 -7.726562 22.316406 -3.792969 25.914062 -0.0976562 C 26.15625 -0.0976562 26.539062 -0.144531 26.972656 -0.0976562 C 28.84375 0.046875 30.714844 -0.144531 32.585938 0.0976562 C 34.84375 0.289062 37.050781 0.289062 39.304688 0.191406 C 39.691406 0.191406 39.929688 0.046875 40.167969 -0.433594 C 38.488281 -2.398438 36.617188 -4.269531 34.84375 -6.238281 C 33.066406 -8.207031 31.292969 -10.222656 29.46875 -12.285156 C 30.042969 -12.429688 30.523438 -12.574219 31.050781 -12.765625 C 33.738281 -13.628906 35.707031 -15.40625 36.808594 -17.996094 C 37.914062 -20.445312 37.914062 -23.035156 37.386719 -25.628906 C 36.667969 -28.988281 34.363281 -31.097656 31.386719 -32.441406 C 30.332031 -32.875 29.324219 -33.449219 28.125 -33.546875 C 27.257812 -33.644531 26.394531 -33.691406 25.53125 -33.691406 Z M 17.804688 -28.269531 C 19.148438 -28.269531 20.445312 -28.363281 21.789062 -27.929688 C 22.652344 -27.691406 23.371094 -27.210938 23.851562 -26.445312 C 24.378906 -25.578125 24.90625 -24.667969 24.8125 -23.515625 C 24.8125 -22.84375 24.957031 -22.171875 24.957031 -21.5 C 24.957031 -19.101562 23.757812 -17.949219 21.691406 -17.179688 C 21.164062 -16.941406 20.539062 -16.84375 19.917969 -16.894531 C 18.667969 -16.941406 17.46875 -16.796875 16.078125 -16.988281 C 15.933594 -20.734375 15.789062 -24.429688 16.03125 -28.125 C 16.652344 -28.460938 17.277344 -28.316406 17.804688 -28.269531 Z M 17.804688 -28.269531 "/></g></g></g></svg>